<svg id="svg" version="1.1" xmlns="http://www.w3.org/2000/svg" xmlns:xlink="http://www.w3.org/1999/xlink" width="400" height="442.962962962963" viewBox="0, 0, 400,442.962962962963"><g id="svgg"><path id="path0" d="M204.400 1.758 C 204.400 1.870,205.075 2.271,205.900 2.648 C 206.725 3.026,207.535 3.405,207.700 3.491 C 207.865 3.577,208.000 3.555,208.000 3.442 C 208.000 3.330,207.325 2.929,206.500 2.552 C 205.675 2.174,204.865 1.795,204.700 1.709 C 204.535 1.623,204.400 1.645,204.400 1.758 M213.295 6.207 C 213.786 6.733,216.800 7.983,216.800 7.661 C 216.800 7.496,216.125 7.100,215.300 6.782 C 214.475 6.464,213.620 6.133,213.400 6.047 C 213.180 5.961,213.133 6.033,213.295 6.207 M197.600 9.602 C 196.830 10.033,190.710 13.068,184.000 16.345 C 177.290 19.622,167.930 24.194,163.200 26.504 C 153.300 31.340,139.202 38.244,124.000 45.700 C 118.170 48.560,109.800 52.654,105.400 54.799 C 101.000 56.944,92.000 61.354,85.400 64.599 C 78.800 67.844,70.070 72.115,66.000 74.092 C 58.836 77.570,52.035 80.897,31.000 91.214 C 25.500 93.912,19.200 96.992,17.000 98.059 C 14.800 99.126,13.546 99.895,14.212 99.767 C 15.147 99.588,16.246 99.949,19.012 101.344 C 30.067 106.916,59.232 121.200,59.554 121.200 C 59.763 121.200,59.993 121.344,60.067 121.521 C 60.140 121.697,61.640 122.527,63.400 123.364 C 65.160 124.201,67.770 125.443,69.200 126.123 C 70.630 126.804,71.860 127.504,71.933 127.680 C 72.007 127.856,72.265 128.000,72.508 128.000 C 72.751 128.000,78.578 130.790,85.457 134.200 C 92.336 137.610,98.153 140.400,98.382 140.400 C 98.612 140.400,98.800 140.580,98.800 140.800 C 98.800 141.020,98.998 141.200,99.240 141.200 C 99.482 141.200,108.347 145.494,118.940 150.742 C 129.533 155.990,138.785 160.534,139.500 160.839 C 140.215 161.145,140.800 161.531,140.800 161.698 C 140.800 161.864,141.160 162.000,141.600 162.000 C 142.040 162.000,142.400 162.180,142.400 162.400 C 142.400 162.620,142.605 162.800,142.856 162.800 C 143.106 162.800,148.940 165.590,155.819 169.000 C 162.698 172.410,168.523 175.200,168.763 175.200 C 169.003 175.200,169.200 175.336,169.200 175.502 C 169.200 175.669,169.785 176.056,170.500 176.363 C 171.215 176.670,178.510 180.235,186.711 184.286 C 203.940 192.796,202.038 192.264,206.835 189.926 C 208.906 188.917,211.185 187.847,211.900 187.548 C 212.615 187.249,213.200 186.869,213.200 186.702 C 213.200 186.536,213.560 186.400,214.000 186.400 C 214.440 186.400,214.800 186.264,214.800 186.098 C 214.800 185.931,215.385 185.549,216.100 185.247 C 216.815 184.946,221.990 182.449,227.600 179.699 C 233.210 176.949,243.290 172.008,250.000 168.718 C 256.710 165.429,262.650 162.527,263.200 162.270 C 263.750 162.012,264.290 161.702,264.400 161.580 C 264.510 161.458,265.320 161.030,266.200 160.629 C 268.012 159.803,286.062 150.950,302.234 142.956 C 308.192 140.010,313.277 137.600,313.534 137.600 C 313.790 137.600,314.000 137.420,314.000 137.200 C 314.000 136.980,314.360 136.800,314.800 136.800 C 315.240 136.800,315.600 136.620,315.600 136.400 C 315.600 136.180,315.778 136.000,315.995 136.000 C 316.213 136.000,322.782 132.850,330.594 129.000 C 338.406 125.150,344.979 122.000,345.199 122.000 C 345.420 122.000,345.600 121.820,345.600 121.600 C 345.600 121.380,345.802 121.200,346.049 121.200 C 346.297 121.200,350.127 119.400,354.561 117.200 C 358.995 115.000,362.828 113.200,363.078 113.200 C 363.329 113.200,363.593 113.056,363.667 112.881 C 363.740 112.705,365.420 111.785,367.400 110.835 C 369.380 109.886,374.622 107.311,379.050 105.114 L 387.099 101.118 388.950 101.937 C 389.967 102.387,390.800 102.665,390.800 102.555 C 390.800 102.445,389.945 101.987,388.900 101.537 C 386.947 100.697,379.444 97.018,347.200 81.092 C 316.977 66.165,299.519 57.548,283.800 49.798 C 259.729 37.932,241.839 29.105,220.662 18.646 C 199.765 8.327,199.832 8.353,197.600 9.602 M222.400 10.619 C 222.400 10.698,223.075 11.071,223.900 11.448 C 224.725 11.826,225.535 12.205,225.700 12.291 C 225.865 12.377,226.000 12.257,226.000 12.024 C 226.000 11.791,225.651 11.600,225.224 11.600 C 224.797 11.600,224.349 11.442,224.230 11.248 C 224.014 10.899,222.400 10.344,222.400 10.619 M229.600 14.163 C 229.600 14.282,230.455 14.767,231.500 15.239 C 232.545 15.712,234.075 16.440,234.900 16.857 C 235.725 17.275,236.400 17.433,236.400 17.208 C 236.400 16.984,236.130 16.800,235.800 16.800 C 235.470 16.800,235.200 16.620,235.200 16.400 C 235.200 16.180,234.840 16.000,234.400 16.000 C 233.960 16.000,233.600 15.820,233.600 15.600 C 233.600 15.380,233.276 15.200,232.880 15.200 C 232.484 15.200,231.989 15.040,231.780 14.845 C 231.306 14.402,229.600 13.869,229.600 14.163 M239.264 18.352 C 238.879 18.596,239.325 18.990,240.834 19.742 C 241.993 20.320,243.029 20.704,243.137 20.596 C 243.245 20.488,243.078 20.397,242.767 20.394 C 242.300 20.389,242.306 20.319,242.800 20.000 C 243.268 19.698,243.157 19.611,242.300 19.606 C 241.636 19.602,241.240 19.402,241.300 19.100 C 241.363 18.783,241.033 18.643,240.400 18.718 C 239.609 18.811,239.526 18.750,240.000 18.424 C 240.718 17.931,240.033 17.864,239.264 18.352 M248.000 22.971 C 248.000 23.384,250.414 24.301,250.621 23.967 C 250.746 23.764,250.376 23.419,249.798 23.199 C 248.685 22.776,248.000 22.689,248.000 22.971 M251.200 24.400 C 251.200 24.620,251.560 24.800,252.000 24.800 C 252.440 24.800,252.800 24.980,252.800 25.200 C 252.800 25.420,253.115 25.596,253.500 25.591 C 254.067 25.584,254.010 25.434,253.200 24.800 C 252.112 23.949,251.200 23.766,251.200 24.400 M8.050 220.400 L 8.006 337.400 20.503 343.734 C 76.466 372.097,92.728 380.342,109.000 388.602 C 116.480 392.399,129.080 398.787,137.000 402.799 C 166.241 417.609,185.551 427.400,191.141 430.252 C 194.298 431.862,196.657 432.910,196.383 432.579 C 195.861 431.951,195.852 433.493,196.821 355.400 C 197.029 338.680,197.369 310.870,197.577 293.600 C 197.785 276.330,198.055 257.700,198.175 252.200 C 198.296 246.700,198.464 232.265,198.549 220.123 L 198.702 198.046 196.451 196.962 C 195.213 196.366,188.041 192.846,180.513 189.139 C 172.985 185.433,166.640 182.400,166.413 182.400 C 166.186 182.400,166.000 182.220,166.000 182.000 C 166.000 181.780,165.640 181.600,165.200 181.600 C 164.760 181.600,164.400 181.420,164.400 181.200 C 164.400 180.980,164.211 180.800,163.981 180.800 C 163.750 180.800,160.239 179.180,156.178 177.200 C 152.117 175.220,148.616 173.600,148.398 173.600 C 148.179 173.600,148.000 173.464,148.000 173.298 C 148.000 173.131,147.415 172.744,146.700 172.437 C 145.391 171.875,134.185 166.408,112.400 155.706 C 82.834 141.180,78.119 138.876,76.900 138.357 C 76.185 138.053,75.600 137.669,75.600 137.502 C 75.600 137.336,75.387 137.200,75.127 137.200 C 74.867 137.200,69.962 134.881,64.227 132.047 C 51.915 125.963,32.330 116.351,27.800 114.169 C 26.040 113.321,24.540 112.486,24.467 112.314 C 24.393 112.141,23.988 112.000,23.567 112.000 C 23.145 112.000,22.800 111.820,22.800 111.600 C 22.800 111.380,22.580 111.200,22.311 111.200 C 21.328 111.200,8.416 104.588,8.257 104.003 C 8.167 103.671,8.073 156.050,8.050 220.400 M391.600 106.400 C 391.600 106.620,391.330 106.800,391.000 106.800 C 390.670 106.800,390.400 106.936,390.400 107.102 C 390.400 107.269,389.815 107.660,389.100 107.971 C 387.882 108.502,380.679 111.956,368.600 117.801 C 365.740 119.185,360.880 121.529,357.800 123.009 C 354.720 124.490,348.240 127.635,343.400 130.000 C 329.449 136.815,328.631 137.200,328.101 137.200 C 327.826 137.200,327.600 137.336,327.600 137.502 C 327.600 137.669,327.015 138.058,326.300 138.368 C 323.777 139.463,288.860 156.334,281.876 159.834 C 279.938 160.805,278.093 161.600,277.776 161.600 C 277.459 161.600,277.200 161.736,277.200 161.902 C 277.200 162.069,276.615 162.460,275.900 162.772 C 275.185 163.084,271.090 165.034,266.800 167.106 C 258.626 171.054,254.381 173.099,243.800 178.192 C 240.280 179.886,235.240 182.337,232.600 183.640 C 229.960 184.942,227.590 186.006,227.333 186.004 C 227.077 186.002,226.807 186.136,226.733 186.302 C 226.586 186.636,224.913 187.474,213.800 192.779 C 209.620 194.775,205.750 196.665,205.200 196.979 L 204.200 197.550 204.000 314.673 L 203.800 431.797 201.800 432.889 C 200.700 433.490,199.962 433.986,200.159 433.991 C 200.357 433.996,201.977 433.211,203.759 432.248 C 207.418 430.269,231.417 418.153,295.400 385.982 C 319.600 373.814,351.233 357.906,365.695 350.629 L 391.989 337.400 391.995 221.700 C 391.998 158.065,391.910 106.000,391.800 106.000 C 391.690 106.000,391.600 106.180,391.600 106.400 " stroke="none" fill="#ab54fb" fill-rule="evenodd"></path><path id="path1" d="M195.600 0.697 C 194.830 1.070,194.140 1.516,194.067 1.688 C 193.993 1.859,193.588 2.000,193.167 2.000 C 192.745 2.000,192.400 2.180,192.400 2.400 C 192.400 2.620,192.136 2.800,191.814 2.800 C 191.090 2.800,188.249 4.089,188.067 4.500 C 187.993 4.665,187.588 4.800,187.167 4.800 C 186.745 4.800,186.400 4.980,186.400 5.200 C 186.400 5.420,186.040 5.600,185.600 5.600 C 185.160 5.600,184.800 5.746,184.800 5.925 C 184.800 6.104,184.170 6.498,183.400 6.800 C 182.630 7.102,182.000 7.496,182.000 7.675 C 182.000 7.854,181.731 8.000,181.403 8.000 C 180.569 8.000,177.600 9.323,177.600 9.694 C 177.600 9.862,177.240 10.000,176.800 10.000 C 176.360 10.000,176.000 10.180,176.000 10.400 C 176.000 10.620,175.640 10.800,175.200 10.800 C 174.760 10.800,174.400 10.980,174.400 11.200 C 174.400 11.420,174.130 11.600,173.800 11.600 C 173.470 11.600,173.200 11.780,173.200 12.000 C 173.200 12.220,172.840 12.400,172.400 12.400 C 171.960 12.400,171.600 12.580,171.600 12.800 C 171.600 13.020,171.331 13.200,171.003 13.200 C 170.169 13.200,167.200 14.523,167.200 14.894 C 167.200 15.062,166.840 15.200,166.400 15.200 C 165.960 15.200,165.600 15.380,165.600 15.600 C 165.600 15.820,165.347 16.000,165.038 16.000 C 164.729 16.000,163.784 16.345,162.938 16.766 C 162.092 17.187,159.600 18.396,157.400 19.453 C 155.200 20.509,153.340 21.515,153.267 21.687 C 153.193 21.859,152.788 22.000,152.367 22.000 C 151.945 22.000,151.600 22.180,151.600 22.400 C 151.600 22.620,151.274 22.800,150.876 22.800 C 150.479 22.800,149.804 23.064,149.376 23.387 C 148.949 23.710,148.285 23.980,147.900 23.987 C 147.515 23.994,147.200 24.180,147.200 24.400 C 147.200 24.620,146.840 24.800,146.400 24.800 C 145.960 24.800,145.600 24.980,145.600 25.200 C 145.600 25.420,145.240 25.600,144.800 25.600 C 144.360 25.600,144.000 25.780,144.000 26.000 C 144.000 26.220,143.730 26.400,143.400 26.400 C 143.070 26.400,142.800 26.580,142.800 26.800 C 142.800 27.020,142.440 27.200,142.000 27.200 C 141.560 27.200,141.200 27.380,141.200 27.600 C 141.200 27.820,140.931 28.000,140.603 28.000 C 139.769 28.000,136.800 29.323,136.800 29.694 C 136.800 29.862,136.440 30.000,136.000 30.000 C 135.560 30.000,135.200 30.180,135.200 30.400 C 135.200 30.620,134.840 30.800,134.400 30.800 C 133.960 30.800,133.600 30.980,133.600 31.200 C 133.600 31.420,133.330 31.600,133.000 31.600 C 132.670 31.600,132.400 31.764,132.400 31.965 C 132.400 32.166,131.680 32.451,130.800 32.600 C 129.920 32.749,129.200 33.001,129.200 33.161 C 129.200 33.320,128.570 33.698,127.800 34.000 C 127.030 34.302,126.400 34.696,126.400 34.875 C 126.400 35.054,126.051 35.200,125.624 35.200 C 125.197 35.200,124.736 35.380,124.600 35.600 C 124.464 35.820,124.003 36.000,123.576 36.000 C 123.149 36.000,122.800 36.180,122.800 36.400 C 122.800 36.620,122.440 36.800,122.000 36.800 C 121.560 36.800,121.200 36.980,121.200 37.200 C 121.200 37.420,120.945 37.600,120.634 37.600 C 119.963 37.600,112.660 41.266,112.467 41.700 C 112.393 41.865,111.988 42.000,111.567 42.000 C 111.145 42.000,110.800 42.160,110.800 42.355 C 110.800 42.551,110.170 42.829,109.400 42.974 C 108.630 43.118,108.000 43.408,108.000 43.618 C 108.000 43.828,107.640 44.000,107.200 44.000 C 106.760 44.000,106.400 44.180,106.400 44.400 C 106.400 44.620,106.040 44.800,105.600 44.800 C 105.160 44.800,104.800 44.946,104.800 45.125 C 104.800 45.304,104.170 45.698,103.400 46.000 C 102.630 46.302,102.000 46.696,102.000 46.875 C 102.000 47.054,101.640 47.200,101.200 47.200 C 100.760 47.200,100.400 47.360,100.400 47.555 C 100.400 47.751,99.770 48.029,99.000 48.174 C 98.230 48.318,97.600 48.608,97.600 48.818 C 97.600 49.028,97.240 49.200,96.800 49.200 C 96.360 49.200,96.000 49.380,96.000 49.600 C 96.000 49.820,95.640 50.000,95.200 50.000 C 94.760 50.000,94.399 50.135,94.397 50.300 C 94.393 50.659,92.456 51.600,91.720 51.600 C 91.434 51.600,91.200 51.780,91.200 52.000 C 91.200 52.220,90.940 52.400,90.621 52.400 C 89.906 52.400,83.850 55.266,83.667 55.691 C 83.593 55.861,83.188 56.000,82.767 56.000 C 82.345 56.000,82.000 56.180,82.000 56.400 C 82.000 56.620,81.640 56.800,81.200 56.800 C 80.760 56.800,80.400 56.980,80.400 57.200 C 80.400 57.420,80.074 57.600,79.676 57.600 C 79.279 57.600,78.604 57.864,78.176 58.187 C 77.749 58.510,77.085 58.780,76.700 58.787 C 76.315 58.794,76.000 58.980,76.000 59.200 C 76.000 59.420,75.640 59.600,75.200 59.600 C 74.760 59.600,74.400 59.780,74.400 60.000 C 74.400 60.220,74.130 60.400,73.800 60.400 C 73.470 60.400,73.200 60.580,73.200 60.800 C 73.200 61.020,72.840 61.200,72.400 61.200 C 71.960 61.200,71.600 61.380,71.600 61.600 C 71.600 61.820,71.240 62.000,70.800 62.000 C 70.360 62.000,70.000 62.160,70.000 62.355 C 70.000 62.551,69.370 62.829,68.600 62.974 C 67.830 63.118,67.200 63.408,67.200 63.618 C 67.200 63.828,66.840 64.000,66.400 64.000 C 65.960 64.000,65.600 64.180,65.600 64.400 C 65.600 64.620,65.240 64.800,64.800 64.800 C 64.360 64.800,64.000 64.980,64.000 65.200 C 64.000 65.420,63.730 65.600,63.400 65.600 C 63.070 65.600,62.800 65.780,62.800 66.000 C 62.800 66.220,62.440 66.400,62.000 66.400 C 61.560 66.400,61.200 66.580,61.200 66.800 C 61.200 67.020,60.903 67.200,60.540 67.200 C 59.763 67.200,55.461 69.228,55.267 69.685 C 55.193 69.858,54.930 70.000,54.681 70.000 C 54.432 70.000,52.692 70.740,50.814 71.644 C 48.936 72.548,46.410 73.756,45.200 74.329 C 43.990 74.902,42.940 75.512,42.867 75.685 C 42.793 75.858,42.388 76.000,41.967 76.000 C 41.545 76.000,41.200 76.180,41.200 76.400 C 41.200 76.620,40.840 76.800,40.400 76.800 C 39.960 76.800,39.600 76.980,39.600 77.200 C 39.600 77.420,39.274 77.600,38.876 77.600 C 38.479 77.600,37.804 77.864,37.376 78.187 C 36.949 78.510,36.285 78.780,35.900 78.787 C 35.515 78.794,35.200 78.980,35.200 79.200 C 35.200 79.420,34.840 79.600,34.400 79.600 C 33.960 79.600,33.600 79.780,33.600 80.000 C 33.600 80.220,33.330 80.400,33.000 80.400 C 32.670 80.400,32.400 80.580,32.400 80.800 C 32.400 81.020,32.040 81.200,31.600 81.200 C 31.160 81.200,30.800 81.380,30.800 81.600 C 30.800 81.820,30.440 82.000,30.000 82.000 C 29.560 82.000,29.200 82.172,29.200 82.382 C 29.200 82.592,28.570 82.882,27.800 83.026 C 27.030 83.171,26.400 83.449,26.400 83.645 C 26.400 83.840,26.040 84.000,25.600 84.000 C 25.160 84.000,24.800 84.180,24.800 84.400 C 24.800 84.620,24.440 84.800,24.000 84.800 C 23.560 84.800,23.200 84.980,23.200 85.200 C 23.200 85.420,22.930 85.600,22.600 85.600 C 22.270 85.600,22.000 85.780,22.000 86.000 C 22.000 86.220,21.728 86.400,21.395 86.400 C 21.062 86.400,20.477 86.561,20.095 86.758 C 17.642 88.021,13.217 90.000,12.844 90.000 C 12.600 90.000,12.400 90.180,12.400 90.400 C 12.400 90.620,12.040 90.800,11.600 90.800 C 11.160 90.800,10.800 90.980,10.800 91.200 C 10.800 91.420,10.440 91.600,10.000 91.600 C 9.560 91.600,9.200 91.780,9.200 92.000 C 9.200 92.220,8.988 92.400,8.730 92.400 C 8.096 92.400,2.235 95.291,2.067 95.686 C 1.993 95.859,1.592 96.000,1.174 96.000 C -0.051 96.000,-0.023 92.717,0.091 220.575 L 0.200 343.350 2.600 344.649 C 3.920 345.364,5.315 345.960,5.700 345.974 C 6.085 345.988,6.400 346.180,6.400 346.400 C 6.400 346.620,6.760 346.800,7.200 346.800 C 7.640 346.800,8.000 346.980,8.000 347.200 C 8.000 347.420,8.270 347.600,8.600 347.600 C 8.930 347.600,9.200 347.780,9.200 348.000 C 9.200 348.220,9.560 348.400,10.000 348.400 C 10.440 348.400,10.800 348.580,10.800 348.800 C 10.800 349.020,11.160 349.200,11.600 349.200 C 12.040 349.200,12.400 349.338,12.400 349.506 C 12.400 349.877,15.369 351.200,16.203 351.200 C 16.531 351.200,16.800 351.346,16.800 351.525 C 16.800 351.704,17.430 352.098,18.200 352.400 C 18.970 352.702,19.600 353.096,19.600 353.275 C 19.600 353.454,19.960 353.600,20.400 353.600 C 20.840 353.600,21.200 353.780,21.200 354.000 C 21.200 354.220,21.560 354.400,22.000 354.400 C 22.440 354.400,22.800 354.572,22.800 354.782 C 22.800 354.992,23.430 355.282,24.200 355.426 C 24.970 355.571,25.600 355.849,25.600 356.045 C 25.600 356.240,25.960 356.400,26.400 356.400 C 26.840 356.400,27.200 356.580,27.200 356.800 C 27.200 357.020,27.470 357.200,27.800 357.200 C 28.130 357.200,28.400 357.380,28.400 357.600 C 28.400 357.820,28.760 358.000,29.200 358.000 C 29.640 358.000,30.000 358.180,30.000 358.400 C 30.000 358.620,30.360 358.800,30.800 358.800 C 31.240 358.800,31.600 358.980,31.600 359.200 C 31.600 359.420,31.960 359.600,32.400 359.600 C 32.840 359.600,33.200 359.772,33.200 359.982 C 33.200 360.192,33.830 360.482,34.600 360.626 C 35.370 360.771,36.000 361.049,36.000 361.245 C 36.000 361.440,36.360 361.600,36.800 361.600 C 37.240 361.600,37.600 361.780,37.600 362.000 C 37.600 362.220,37.870 362.400,38.200 362.400 C 38.530 362.400,38.800 362.580,38.800 362.800 C 38.800 363.020,39.160 363.200,39.600 363.200 C 40.040 363.200,40.400 363.380,40.400 363.600 C 40.400 363.820,40.760 364.000,41.200 364.000 C 41.640 364.000,42.000 364.154,42.000 364.343 C 42.000 364.531,43.170 365.206,44.599 365.843 C 46.029 366.479,47.199 367.135,47.199 367.300 C 47.200 367.465,47.545 367.600,47.967 367.600 C 48.388 367.600,48.793 367.735,48.867 367.900 C 49.063 368.341,54.740 371.200,55.420 371.200 C 55.739 371.200,56.000 371.380,56.000 371.600 C 56.000 371.820,56.360 372.000,56.800 372.000 C 57.240 372.000,57.600 372.146,57.600 372.325 C 57.600 372.504,58.230 372.898,59.000 373.200 C 59.770 373.502,60.400 373.896,60.400 374.075 C 60.400 374.254,60.760 374.400,61.200 374.400 C 61.640 374.400,62.000 374.572,62.000 374.782 C 62.000 374.992,62.630 375.282,63.400 375.426 C 64.170 375.571,64.800 375.849,64.800 376.045 C 64.800 376.240,65.160 376.400,65.600 376.400 C 66.040 376.400,66.400 376.580,66.400 376.800 C 66.400 377.020,66.760 377.200,67.200 377.200 C 67.640 377.200,68.000 377.380,68.000 377.600 C 68.000 377.820,68.270 378.000,68.600 378.000 C 68.930 378.000,69.200 378.180,69.200 378.400 C 69.200 378.620,69.560 378.800,70.000 378.800 C 70.440 378.800,70.800 378.980,70.800 379.200 C 70.800 379.420,71.160 379.600,71.600 379.600 C 72.040 379.600,72.400 379.772,72.400 379.982 C 72.400 380.192,73.030 380.482,73.800 380.626 C 74.570 380.771,75.200 381.049,75.200 381.245 C 75.200 381.440,75.560 381.600,76.000 381.600 C 76.440 381.600,76.800 381.780,76.800 382.000 C 76.800 382.220,77.070 382.400,77.400 382.400 C 77.730 382.400,78.000 382.580,78.000 382.800 C 78.000 383.020,78.360 383.200,78.800 383.200 C 79.240 383.200,79.600 383.380,79.600 383.600 C 79.600 383.820,79.960 384.000,80.400 384.000 C 80.840 384.000,81.200 384.180,81.200 384.400 C 81.200 384.620,81.560 384.800,82.000 384.800 C 82.440 384.800,82.800 384.972,82.800 385.182 C 82.800 385.392,83.430 385.682,84.200 385.826 C 84.970 385.971,85.600 386.249,85.600 386.445 C 85.600 386.640,85.960 386.800,86.400 386.800 C 86.840 386.800,87.200 386.980,87.200 387.200 C 87.200 387.420,87.470 387.600,87.800 387.600 C 88.130 387.600,88.401 387.735,88.403 387.900 C 88.407 388.259,90.344 389.200,91.080 389.200 C 91.366 389.200,91.600 389.380,91.600 389.600 C 91.600 389.820,91.947 390.000,92.371 390.000 C 92.796 390.000,93.381 390.226,93.671 390.502 C 93.962 390.779,95.100 391.451,96.200 391.997 C 97.300 392.543,98.290 393.091,98.400 393.215 C 98.591 393.430,101.520 394.828,104.300 396.032 C 105.015 396.342,105.600 396.731,105.600 396.898 C 105.600 397.064,105.960 397.200,106.400 397.200 C 106.840 397.200,107.200 397.380,107.200 397.600 C 107.200 397.820,107.545 398.000,107.967 398.000 C 108.388 398.000,108.793 398.142,108.867 398.315 C 109.032 398.705,113.309 400.800,113.940 400.800 C 114.193 400.800,114.400 400.980,114.400 401.200 C 114.400 401.420,114.760 401.600,115.200 401.600 C 115.640 401.600,116.000 401.780,116.000 402.000 C 116.000 402.220,116.360 402.400,116.800 402.400 C 117.240 402.400,117.600 402.546,117.600 402.725 C 117.600 402.904,118.230 403.298,119.000 403.600 C 119.770 403.902,120.400 404.296,120.400 404.475 C 120.400 404.654,120.760 404.800,121.200 404.800 C 121.640 404.800,122.000 404.972,122.000 405.182 C 122.000 405.392,122.630 405.682,123.400 405.826 C 124.170 405.971,124.800 406.249,124.800 406.445 C 124.800 406.640,125.160 406.800,125.600 406.800 C 126.040 406.800,126.400 406.980,126.400 407.200 C 126.400 407.420,126.760 407.600,127.200 407.600 C 127.640 407.600,128.000 407.780,128.000 408.000 C 128.000 408.220,128.270 408.400,128.600 408.400 C 128.930 408.400,129.200 408.580,129.200 408.800 C 129.200 409.020,129.560 409.200,130.000 409.200 C 130.440 409.200,130.800 409.360,130.800 409.555 C 130.800 409.751,131.430 410.029,132.200 410.174 C 132.970 410.318,133.600 410.608,133.600 410.818 C 133.600 411.028,133.960 411.200,134.400 411.200 C 134.840 411.200,135.200 411.380,135.200 411.600 C 135.200 411.820,135.560 412.000,136.000 412.000 C 136.440 412.000,136.800 412.180,136.800 412.400 C 136.800 412.620,137.070 412.800,137.400 412.800 C 137.730 412.800,138.000 412.980,138.000 413.200 C 138.000 413.420,138.360 413.600,138.800 413.600 C 139.240 413.600,139.600 413.738,139.600 413.906 C 139.600 414.277,142.569 415.600,143.403 415.600 C 143.731 415.600,144.000 415.780,144.000 416.000 C 144.000 416.220,144.255 416.400,144.567 416.400 C 144.878 416.400,145.193 416.544,145.267 416.719 C 145.340 416.895,147.560 418.110,150.200 419.419 C 152.840 420.729,155.060 421.935,155.133 422.100 C 155.207 422.265,155.612 422.400,156.033 422.400 C 156.455 422.400,156.800 422.580,156.800 422.800 C 156.800 423.020,157.160 423.200,157.600 423.200 C 158.040 423.200,158.400 423.338,158.400 423.506 C 158.400 423.877,161.369 425.200,162.203 425.200 C 162.531 425.200,162.800 425.380,162.800 425.600 C 162.800 425.820,163.070 426.000,163.400 426.000 C 163.730 426.000,164.000 426.180,164.000 426.400 C 164.000 426.620,164.360 426.800,164.800 426.800 C 165.240 426.800,165.600 426.980,165.600 427.200 C 165.600 427.420,165.945 427.600,166.367 427.600 C 166.788 427.600,167.193 427.742,167.267 427.915 C 167.461 428.372,171.763 430.400,172.540 430.400 C 172.903 430.400,173.200 430.580,173.200 430.800 C 173.200 431.020,173.470 431.200,173.800 431.200 C 174.130 431.200,174.400 431.380,174.400 431.600 C 174.400 431.820,174.760 432.000,175.200 432.000 C 175.640 432.000,176.000 432.180,176.000 432.400 C 176.000 432.620,176.345 432.800,176.767 432.800 C 177.188 432.800,177.593 432.942,177.667 433.115 C 177.832 433.505,182.109 435.600,182.740 435.600 C 182.993 435.600,183.200 435.780,183.200 436.000 C 183.200 436.220,183.560 436.400,184.000 436.400 C 184.440 436.400,184.800 436.580,184.800 436.800 C 184.800 437.020,185.160 437.200,185.600 437.200 C 186.040 437.200,186.400 437.380,186.400 437.600 C 186.400 437.820,186.760 438.000,187.200 438.000 C 187.640 438.000,188.000 438.180,188.000 438.400 C 188.000 438.620,188.270 438.800,188.600 438.800 C 188.930 438.800,189.200 438.980,189.200 439.200 C 189.200 439.420,189.560 439.600,190.000 439.600 C 190.440 439.600,190.800 439.780,190.800 440.000 C 190.800 440.220,191.126 440.400,191.524 440.400 C 191.921 440.400,192.596 440.664,193.024 440.987 C 193.451 441.310,194.038 441.580,194.329 441.587 C 194.619 441.594,195.127 441.870,195.457 442.200 C 196.716 443.459,205.200 442.534,205.200 441.137 C 205.200 440.987,205.740 440.745,206.400 440.600 C 207.060 440.455,207.600 440.171,207.600 439.968 C 207.600 439.766,207.853 439.600,208.162 439.600 C 208.828 439.600,212.141 437.932,212.333 437.500 C 212.407 437.335,212.722 437.200,213.033 437.200 C 213.345 437.200,213.600 437.020,213.600 436.800 C 213.600 436.580,213.960 436.400,214.400 436.400 C 214.840 436.400,215.200 436.240,215.200 436.045 C 215.200 435.849,215.830 435.571,216.600 435.426 C 217.370 435.282,218.000 434.992,218.000 434.782 C 218.000 434.572,218.360 434.400,218.800 434.400 C 219.240 434.400,219.600 434.220,219.600 434.000 C 219.600 433.780,219.960 433.600,220.400 433.600 C 220.840 433.600,221.200 433.420,221.200 433.200 C 221.200 432.980,221.470 432.800,221.800 432.800 C 222.130 432.800,222.400 432.620,222.400 432.400 C 222.400 432.180,222.760 432.000,223.200 432.000 C 223.640 432.000,224.000 431.820,224.000 431.600 C 224.000 431.380,224.360 431.200,224.800 431.200 C 225.240 431.200,225.600 431.040,225.600 430.845 C 225.600 430.649,226.230 430.371,227.000 430.226 C 227.770 430.082,228.400 429.792,228.400 429.582 C 228.400 429.372,228.760 429.200,229.200 429.200 C 229.640 429.200,230.000 429.020,230.000 428.800 C 230.000 428.580,230.360 428.400,230.800 428.400 C 231.240 428.400,231.600 428.220,231.600 428.000 C 231.600 427.780,231.870 427.600,232.200 427.600 C 232.530 427.600,232.800 427.420,232.800 427.200 C 232.800 426.980,233.160 426.800,233.600 426.800 C 234.040 426.800,234.400 426.620,234.400 426.400 C 234.400 426.180,234.760 426.000,235.200 426.000 C 235.640 426.000,236.000 425.840,236.000 425.645 C 236.000 425.449,236.630 425.171,237.400 425.026 C 238.170 424.882,238.800 424.592,238.800 424.382 C 238.800 424.172,239.160 424.000,239.600 424.000 C 240.040 424.000,240.400 423.820,240.400 423.600 C 240.400 423.380,240.760 423.200,241.200 423.200 C 241.640 423.200,242.000 423.020,242.000 422.800 C 242.000 422.580,242.270 422.400,242.600 422.400 C 242.930 422.400,243.200 422.220,243.200 422.000 C 243.200 421.780,243.560 421.600,244.000 421.600 C 244.440 421.600,244.800 421.440,244.800 421.245 C 244.800 421.049,245.430 420.771,246.200 420.626 C 246.970 420.482,247.600 420.192,247.600 419.982 C 247.600 419.772,247.960 419.600,248.400 419.600 C 248.840 419.600,249.200 419.420,249.200 419.200 C 249.200 418.980,249.560 418.800,250.000 418.800 C 250.440 418.800,250.800 418.654,250.800 418.475 C 250.800 418.296,251.430 417.902,252.200 417.600 C 252.970 417.298,253.600 416.904,253.600 416.725 C 253.600 416.546,253.960 416.400,254.400 416.400 C 254.840 416.400,255.200 416.240,255.200 416.045 C 255.200 415.849,255.830 415.571,256.600 415.426 C 257.370 415.282,258.000 414.992,258.000 414.782 C 258.000 414.572,258.360 414.400,258.800 414.400 C 259.240 414.400,259.600 414.220,259.600 414.000 C 259.600 413.780,259.960 413.600,260.400 413.600 C 260.840 413.600,261.200 413.420,261.200 413.200 C 261.200 412.980,261.470 412.800,261.800 412.800 C 262.130 412.800,262.400 412.620,262.400 412.400 C 262.400 412.180,262.760 412.000,263.200 412.000 C 263.640 412.000,264.000 411.820,264.000 411.600 C 264.000 411.380,264.360 411.200,264.800 411.200 C 265.240 411.200,265.600 411.040,265.600 410.845 C 265.600 410.649,266.230 410.371,267.000 410.226 C 267.770 410.082,268.400 409.792,268.400 409.582 C 268.400 409.372,268.760 409.200,269.200 409.200 C 269.640 409.200,270.000 409.054,270.000 408.875 C 270.000 408.696,270.630 408.302,271.400 408.000 C 272.170 407.698,272.800 407.304,272.800 407.125 C 272.800 406.946,273.160 406.800,273.600 406.800 C 274.040 406.800,274.400 406.620,274.400 406.400 C 274.400 406.180,274.726 406.000,275.124 406.000 C 275.521 406.000,276.196 405.736,276.624 405.413 C 277.051 405.090,277.715 404.820,278.100 404.813 C 278.485 404.806,278.801 404.665,278.801 404.500 C 278.802 404.335,279.792 403.750,281.000 403.200 C 282.208 402.650,283.198 402.065,283.199 401.900 C 283.199 401.735,283.560 401.600,284.000 401.600 C 284.440 401.600,284.800 401.420,284.800 401.200 C 284.800 400.980,285.061 400.800,285.380 400.800 C 286.060 400.800,291.737 397.941,291.933 397.500 C 292.007 397.335,292.412 397.200,292.833 397.200 C 293.255 397.200,293.600 397.020,293.600 396.800 C 293.600 396.580,293.960 396.400,294.400 396.400 C 294.840 396.400,295.200 396.220,295.200 396.000 C 295.200 395.780,295.412 395.600,295.670 395.600 C 296.304 395.600,302.165 392.709,302.333 392.314 C 302.407 392.141,302.812 392.000,303.233 392.000 C 303.655 392.000,304.000 391.820,304.000 391.600 C 304.000 391.380,304.345 391.200,304.767 391.200 C 305.188 391.200,305.593 391.065,305.667 390.900 C 305.740 390.735,306.970 390.060,308.400 389.400 C 309.830 388.740,311.090 388.096,311.200 387.970 C 311.310 387.843,312.885 387.041,314.700 386.188 C 316.515 385.334,318.000 384.492,318.000 384.318 C 318.000 384.143,318.360 384.000,318.800 384.000 C 319.240 384.000,319.600 383.820,319.600 383.600 C 319.600 383.380,319.887 383.200,320.238 383.200 C 320.589 383.200,321.354 382.872,321.938 382.471 C 322.935 381.787,323.961 381.287,327.100 379.956 C 327.815 379.653,328.400 379.269,328.400 379.102 C 328.400 378.936,328.760 378.800,329.200 378.800 C 329.640 378.800,330.000 378.620,330.000 378.400 C 330.000 378.180,330.360 378.000,330.800 378.000 C 331.240 378.000,331.600 377.820,331.600 377.600 C 331.600 377.380,331.870 377.200,332.200 377.200 C 332.530 377.200,332.800 377.020,332.800 376.800 C 332.800 376.580,333.160 376.400,333.600 376.400 C 334.040 376.400,334.400 376.220,334.400 376.000 C 334.400 375.780,334.669 375.600,334.997 375.600 C 335.831 375.600,338.800 374.277,338.800 373.906 C 338.800 373.738,339.160 373.600,339.600 373.600 C 340.040 373.600,340.400 373.420,340.400 373.200 C 340.400 372.980,340.760 372.800,341.200 372.800 C 341.640 372.800,342.000 372.620,342.000 372.400 C 342.000 372.180,342.270 372.000,342.600 372.000 C 342.930 372.000,343.200 371.820,343.200 371.600 C 343.200 371.380,343.469 371.200,343.797 371.200 C 344.631 371.200,347.600 369.877,347.600 369.506 C 347.600 369.338,347.960 369.200,348.400 369.200 C 348.840 369.200,349.200 369.020,349.200 368.800 C 349.200 368.580,349.560 368.400,350.000 368.400 C 350.440 368.400,350.800 368.220,350.800 368.000 C 350.800 367.780,351.160 367.600,351.600 367.600 C 352.040 367.600,352.400 367.420,352.400 367.200 C 352.400 366.980,352.670 366.800,353.000 366.800 C 353.330 366.800,353.600 366.620,353.600 366.400 C 353.600 366.180,353.869 366.000,354.197 366.000 C 355.031 366.000,358.000 364.677,358.000 364.306 C 358.000 364.138,358.360 364.000,358.800 364.000 C 359.240 364.000,359.600 363.820,359.600 363.600 C 359.600 363.380,359.960 363.200,360.400 363.200 C 360.840 363.200,361.200 363.020,361.200 362.800 C 361.200 362.580,361.470 362.400,361.800 362.400 C 362.130 362.400,362.400 362.220,362.400 362.000 C 362.400 361.780,362.760 361.600,363.200 361.600 C 363.640 361.600,364.000 361.420,364.000 361.200 C 364.000 360.980,364.269 360.800,364.597 360.800 C 365.431 360.800,368.400 359.477,368.400 359.106 C 368.400 358.938,368.760 358.800,369.200 358.800 C 369.640 358.800,370.000 358.620,370.000 358.400 C 370.000 358.180,370.360 358.000,370.800 358.000 C 371.240 358.000,371.600 357.820,371.600 357.600 C 371.600 357.380,371.870 357.200,372.200 357.200 C 372.530 357.200,372.800 357.020,372.800 356.800 C 372.800 356.580,373.160 356.400,373.600 356.400 C 374.040 356.400,374.400 356.220,374.400 356.000 C 374.400 355.780,374.669 355.600,374.997 355.600 C 375.831 355.600,378.800 354.277,378.800 353.906 C 378.800 353.738,379.160 353.600,379.600 353.600 C 380.040 353.600,380.400 353.420,380.400 353.200 C 380.400 352.980,380.760 352.800,381.200 352.800 C 381.640 352.800,382.000 352.620,382.000 352.400 C 382.000 352.180,382.270 352.000,382.600 352.000 C 382.930 352.000,383.200 351.820,383.200 351.600 C 383.200 351.380,383.469 351.200,383.797 351.200 C 384.631 351.200,387.600 349.877,387.600 349.506 C 387.600 349.338,387.960 349.200,388.400 349.200 C 388.840 349.200,389.200 349.020,389.200 348.800 C 389.200 348.580,389.560 348.400,390.000 348.400 C 390.440 348.400,390.800 348.254,390.800 348.075 C 390.800 347.896,391.430 347.502,392.200 347.200 C 392.970 346.898,393.600 346.504,393.600 346.325 C 393.600 346.146,393.864 346.000,394.186 346.000 C 394.910 346.000,397.751 344.711,397.933 344.300 C 398.007 344.135,398.392 344.000,398.791 344.000 C 400.018 344.000,400.000 345.865,400.000 220.400 C 400.000 94.436,400.024 96.800,398.757 96.800 C 398.341 96.800,398.000 96.620,398.000 96.400 C 398.000 96.180,397.730 96.000,397.400 96.000 C 397.070 96.000,396.800 95.820,396.800 95.600 C 396.800 95.380,396.440 95.200,396.000 95.200 C 395.560 95.200,395.200 95.020,395.200 94.800 C 395.200 94.580,394.840 94.400,394.400 94.400 C 393.960 94.400,393.600 94.220,393.600 94.000 C 393.600 93.780,393.285 93.594,392.900 93.587 C 392.515 93.580,391.851 93.310,391.424 92.987 C 390.996 92.664,390.321 92.400,389.924 92.400 C 389.526 92.400,389.200 92.220,389.200 92.000 C 389.200 91.780,388.855 91.600,388.433 91.600 C 388.012 91.600,387.607 91.465,387.533 91.300 C 387.340 90.866,380.037 87.200,379.366 87.200 C 379.055 87.200,378.800 87.020,378.800 86.800 C 378.800 86.580,378.440 86.400,378.000 86.400 C 377.560 86.400,377.200 86.220,377.200 86.000 C 377.200 85.780,376.975 85.600,376.700 85.601 C 376.070 85.603,372.646 83.903,372.467 83.500 C 372.393 83.335,372.033 83.199,371.667 83.198 C 371.300 83.196,370.484 82.926,369.854 82.598 C 369.224 82.269,368.459 82.000,368.154 82.000 C 367.849 82.000,367.600 81.820,367.600 81.600 C 367.600 81.380,367.330 81.200,367.000 81.200 C 366.670 81.200,366.400 81.020,366.400 80.800 C 366.400 80.580,366.040 80.400,365.600 80.400 C 365.160 80.400,364.800 80.220,364.800 80.000 C 364.800 79.780,364.440 79.600,364.000 79.600 C 363.560 79.600,363.200 79.462,363.200 79.294 C 363.200 78.923,360.231 77.600,359.397 77.600 C 359.069 77.600,358.800 77.420,358.800 77.200 C 358.800 76.980,358.530 76.800,358.200 76.800 C 357.870 76.800,357.600 76.620,357.600 76.400 C 357.600 76.180,357.240 76.000,356.800 76.000 C 356.360 76.000,356.000 75.820,356.000 75.600 C 356.000 75.380,355.640 75.200,355.200 75.200 C 354.760 75.200,354.400 75.020,354.400 74.800 C 354.400 74.580,354.040 74.400,353.600 74.400 C 353.160 74.400,352.800 74.262,352.800 74.094 C 352.800 73.723,349.831 72.400,348.997 72.400 C 348.669 72.400,348.400 72.254,348.400 72.075 C 348.400 71.896,347.770 71.502,347.000 71.200 C 346.230 70.898,345.600 70.504,345.600 70.325 C 345.600 70.146,345.240 70.000,344.800 70.000 C 344.360 70.000,344.000 69.820,344.000 69.600 C 344.000 69.380,343.640 69.200,343.200 69.200 C 342.760 69.200,342.400 69.062,342.400 68.894 C 342.400 68.523,339.431 67.200,338.597 67.200 C 338.269 67.200,338.000 67.054,338.000 66.875 C 338.000 66.696,337.370 66.302,336.600 66.000 C 335.830 65.698,335.200 65.304,335.200 65.125 C 335.200 64.946,334.840 64.800,334.400 64.800 C 333.960 64.800,333.600 64.620,333.600 64.400 C 333.600 64.180,333.285 63.994,332.900 63.987 C 332.515 63.980,331.851 63.710,331.424 63.387 C 330.996 63.064,330.321 62.800,329.924 62.800 C 329.526 62.800,329.200 62.620,329.200 62.400 C 329.200 62.180,328.855 62.000,328.433 62.000 C 328.012 62.000,327.607 61.859,327.533 61.687 C 327.460 61.515,325.600 60.509,323.400 59.453 C 321.200 58.396,318.708 57.187,317.862 56.766 C 317.016 56.345,316.071 56.000,315.762 56.000 C 315.453 56.000,315.199 55.865,315.199 55.700 C 315.198 55.535,314.208 54.950,313.000 54.400 C 311.792 53.850,310.802 53.281,310.801 53.135 C 310.801 52.989,310.080 52.749,309.200 52.600 C 308.320 52.451,307.600 52.166,307.600 51.965 C 307.600 51.764,307.330 51.600,307.000 51.600 C 306.670 51.600,306.400 51.420,306.400 51.200 C 306.400 50.980,306.040 50.800,305.600 50.800 C 305.160 50.800,304.800 50.620,304.800 50.400 C 304.800 50.180,304.440 50.000,304.000 50.000 C 303.560 50.000,303.200 49.862,303.200 49.694 C 303.200 49.323,300.231 48.000,299.397 48.000 C 299.069 48.000,298.800 47.820,298.800 47.600 C 298.800 47.380,298.530 47.200,298.200 47.200 C 297.870 47.200,297.600 47.020,297.600 46.800 C 297.600 46.580,297.240 46.400,296.800 46.400 C 296.360 46.400,296.000 46.220,296.000 46.000 C 296.000 45.780,295.640 45.600,295.200 45.600 C 294.760 45.600,294.400 45.420,294.400 45.200 C 294.400 44.980,294.040 44.800,293.600 44.800 C 293.160 44.800,292.800 44.662,292.800 44.494 C 292.800 44.123,289.831 42.800,288.997 42.800 C 288.669 42.800,288.400 42.654,288.400 42.475 C 288.400 42.296,287.770 41.902,287.000 41.600 C 286.230 41.298,285.600 40.904,285.600 40.725 C 285.600 40.546,285.240 40.400,284.800 40.400 C 284.360 40.400,284.000 40.220,284.000 40.000 C 284.000 39.780,283.640 39.600,283.200 39.600 C 282.760 39.600,282.400 39.462,282.400 39.294 C 282.400 38.923,279.431 37.600,278.597 37.600 C 278.269 37.600,278.000 37.454,278.000 37.275 C 278.000 37.096,277.370 36.702,276.600 36.400 C 275.830 36.098,275.200 35.704,275.200 35.525 C 275.200 35.346,274.840 35.200,274.400 35.200 C 273.960 35.200,273.600 35.020,273.600 34.800 C 273.600 34.580,273.255 34.400,272.833 34.400 C 272.412 34.400,272.007 34.265,271.933 34.100 C 271.755 33.699,268.918 32.400,268.220 32.400 C 267.916 32.400,267.607 32.259,267.533 32.087 C 267.305 31.551,259.646 27.924,259.255 28.166 C 259.051 28.292,258.765 28.086,258.620 27.709 C 258.395 27.121,258.304 27.107,257.985 27.611 C 257.733 28.010,257.610 28.038,257.606 27.700 C 257.603 27.425,257.240 27.200,256.800 27.200 C 256.360 27.200,256.000 27.020,256.000 26.800 C 256.000 26.580,255.640 26.400,255.200 26.400 C 254.760 26.400,254.400 26.147,254.400 25.837 C 254.400 25.472,254.120 25.348,253.600 25.484 C 253.153 25.601,252.800 25.496,252.800 25.247 C 252.800 25.001,252.440 24.800,252.000 24.800 C 251.560 24.800,251.200 24.612,251.200 24.382 C 251.200 24.153,250.975 24.005,250.700 24.054 C 250.057 24.168,246.800 22.708,246.800 22.306 C 246.800 22.138,246.440 22.000,246.000 22.000 C 245.560 22.000,245.200 21.820,245.200 21.600 C 245.200 21.380,244.840 21.200,244.400 21.200 C 243.960 21.200,243.600 21.009,243.600 20.776 C 243.600 20.543,243.441 20.451,243.246 20.571 C 242.875 20.801,237.897 18.418,237.667 17.900 C 237.593 17.735,237.273 17.600,236.954 17.600 C 236.442 17.600,230.287 14.634,208.084 3.688 C 204.721 2.029,201.875 0.521,201.761 0.336 C 201.390 -0.263,197.057 -0.010,195.600 0.697 M220.662 18.646 C 241.839 29.105,259.729 37.932,283.800 49.798 C 300.049 57.809,318.734 67.032,347.200 81.093 C 368.219 91.476,387.274 100.819,390.094 102.124 L 391.988 103.000 391.988 220.200 L 391.988 337.400 364.494 351.233 C 349.372 358.842,318.100 374.570,295.000 386.185 C 261.265 403.148,222.782 422.564,201.934 433.140 C 199.417 434.417,199.204 434.459,198.134 433.897 C 192.185 430.772,181.679 425.428,137.000 402.799 C 129.080 398.787,116.480 392.399,109.000 388.602 C 92.728 380.342,76.466 372.097,20.503 343.734 L 8.006 337.400 8.003 219.946 L 8.000 102.492 8.900 101.929 C 9.395 101.619,11.150 100.756,12.800 100.011 C 14.450 99.266,21.560 95.833,28.600 92.383 C 54.137 79.867,58.726 77.623,66.000 74.091 C 70.070 72.115,78.800 67.844,85.400 64.599 C 92.000 61.354,101.000 56.944,105.400 54.799 C 109.800 52.654,118.170 48.560,124.000 45.700 C 139.202 38.244,153.300 31.340,163.200 26.504 C 167.930 24.194,177.290 19.622,184.000 16.345 C 190.710 13.068,196.830 10.033,197.600 9.602 C 199.832 8.353,199.765 8.327,220.662 18.646 " stroke="none" fill="#5f06be" fill-rule="evenodd"></path><path id="path2" d="M203.600 0.660 C 204.370 1.053,205.060 1.516,205.133 1.688 C 205.207 1.859,205.612 2.000,206.033 2.000 C 206.455 2.000,206.800 2.180,206.800 2.400 C 206.800 2.620,207.160 2.800,207.600 2.800 C 208.040 2.800,208.400 2.980,208.400 3.200 C 208.400 3.420,208.726 3.600,209.124 3.600 C 209.521 3.600,210.196 3.864,210.624 4.187 C 211.051 4.510,211.715 4.780,212.100 4.787 C 212.485 4.794,212.800 4.980,212.800 5.200 C 212.800 5.420,213.160 5.600,213.600 5.600 C 214.040 5.600,214.400 5.780,214.400 6.000 C 214.400 6.220,214.760 6.400,215.200 6.400 C 215.640 6.400,216.000 6.580,216.000 6.800 C 216.000 7.020,216.270 7.200,216.600 7.200 C 216.930 7.200,217.200 7.380,217.200 7.600 C 217.200 7.820,217.449 8.000,217.754 8.000 C 218.059 8.000,218.824 8.269,219.454 8.598 C 220.084 8.926,220.900 9.196,221.267 9.198 C 221.633 9.199,222.002 9.407,222.087 9.660 C 222.171 9.913,222.501 10.031,222.820 9.922 C 223.426 9.716,220.307 8.000,219.325 8.000 C 219.036 8.000,218.800 7.820,218.800 7.600 C 218.800 7.380,218.530 7.200,218.200 7.200 C 217.870 7.200,217.600 7.020,217.600 6.800 C 217.600 6.580,217.335 6.400,217.012 6.400 C 216.689 6.400,215.744 6.017,214.912 5.550 C 211.882 3.846,208.095 2.000,207.630 2.000 C 207.367 2.000,207.264 1.820,207.400 1.600 C 207.536 1.380,207.292 1.200,206.857 1.200 C 206.422 1.200,206.007 1.028,205.933 0.819 C 205.860 0.609,204.990 0.327,204.000 0.191 L 202.200 -0.055 203.600 0.660 M223.400 10.400 C 223.264 10.620,223.487 10.800,223.896 10.800 C 224.305 10.800,224.840 11.000,225.085 11.245 C 225.330 11.490,225.764 11.612,226.050 11.517 C 226.345 11.418,225.989 11.053,225.224 10.672 C 223.638 9.881,223.714 9.892,223.400 10.400 M11.105 101.332 C 7.739 102.916,7.622 103.617,10.500 104.947 C 12.407 105.828,21.620 110.348,53.000 125.799 C 70.330 134.332,87.899 142.959,97.800 147.798 C 102.860 150.271,113.030 155.265,120.400 158.895 C 127.770 162.526,138.300 167.705,143.800 170.404 C 149.300 173.102,159.380 178.052,166.200 181.403 C 173.020 184.753,183.235 189.772,188.900 192.555 C 196.399 196.239,199.203 197.803,199.211 198.307 C 199.292 203.255,199.092 228.423,198.776 253.200 C 198.166 301.060,197.646 343.096,197.226 378.600 C 197.015 396.420,196.714 415.747,196.556 421.549 L 196.271 432.099 197.235 432.841 C 198.697 433.964,201.709 433.410,202.894 431.800 C 203.055 431.580,203.216 390.180,203.251 339.800 C 203.286 289.420,203.423 236.680,203.557 222.600 L 203.800 197.000 209.443 194.200 C 212.546 192.660,217.496 190.242,220.443 188.827 C 229.525 184.465,241.028 178.893,249.400 174.799 C 253.800 172.648,259.830 169.719,262.800 168.291 C 265.770 166.862,271.260 164.210,275.000 162.398 C 278.740 160.586,283.960 158.069,286.600 156.805 C 289.240 155.540,295.630 152.435,300.800 149.905 C 305.970 147.374,312.180 144.358,314.600 143.203 C 317.020 142.047,322.060 139.615,325.800 137.798 C 329.540 135.981,334.850 133.413,337.600 132.092 C 340.350 130.771,346.380 127.849,351.000 125.599 C 361.335 120.567,372.617 115.105,387.300 108.028 C 392.625 105.461,393.180 104.153,389.650 102.485 L 387.713 101.570 371.957 109.331 C 336.134 126.975,329.131 130.426,315.000 137.400 C 306.860 141.416,295.070 147.225,288.800 150.306 C 282.530 153.388,270.560 159.281,262.200 163.401 C 246.796 170.992,231.376 178.537,227.000 180.625 C 225.680 181.255,224.540 181.912,224.467 182.085 C 224.393 182.258,224.170 182.400,223.970 182.400 C 223.770 182.400,219.870 184.222,215.303 186.449 C 210.736 188.676,205.962 191.003,204.692 191.619 L 202.385 192.739 196.892 190.018 C 193.872 188.522,184.290 183.787,175.600 179.497 C 166.910 175.207,150.080 166.884,138.200 161.001 C 126.320 155.117,109.345 146.720,100.478 142.341 C 91.610 137.961,75.050 129.773,63.678 124.144 C 52.305 118.516,36.675 110.781,28.945 106.956 C 21.215 103.130,14.645 100.015,14.345 100.032 C 14.045 100.050,12.587 100.635,11.105 101.332 " stroke="none" fill="#d3aafb" fill-rule="evenodd"></path><path id="path3" d="M17.200 100.940 C 17.200 101.245,23.655 104.478,23.858 104.276 C 23.960 104.174,22.638 103.409,20.921 102.576 C 19.205 101.743,17.665 100.992,17.500 100.907 C 17.335 100.822,17.200 100.837,17.200 100.940 M382.400 103.800 C 380.090 104.987,378.380 105.959,378.600 105.959 C 378.820 105.959,380.890 104.987,383.200 103.800 C 385.510 102.613,387.220 101.641,387.000 101.641 C 386.780 101.641,384.710 102.613,382.400 103.800 M10.902 105.436 C 11.345 105.878,29.711 114.822,29.864 114.669 C 30.014 114.519,11.350 105.200,10.899 105.200 C 10.771 105.200,10.773 105.306,10.902 105.436 M26.000 105.365 C 26.000 105.456,27.395 106.207,29.100 107.035 C 30.805 107.862,32.335 108.608,32.500 108.693 C 32.665 108.778,32.800 108.763,32.800 108.660 C 32.800 108.460,26.601 105.200,26.223 105.200 C 26.100 105.200,26.000 105.274,26.000 105.365 M374.475 107.649 C 372.646 108.547,371.231 109.365,371.332 109.465 C 371.517 109.650,378.000 106.426,378.000 106.149 C 378.000 105.918,377.998 105.918,374.475 107.649 M388.900 107.233 C 387.525 107.900,386.400 108.536,386.400 108.646 C 386.400 108.757,386.535 108.777,386.700 108.692 C 386.865 108.607,388.035 108.043,389.300 107.439 C 390.565 106.835,391.600 106.264,391.600 106.171 C 391.600 105.922,391.619 105.914,388.900 107.233 M380.475 111.271 C 377.766 112.598,375.627 113.761,375.723 113.856 C 375.818 113.952,377.894 113.033,380.335 111.815 C 382.776 110.597,384.949 109.600,385.163 109.600 C 385.377 109.600,385.664 109.420,385.800 109.200 C 386.217 108.525,385.574 108.775,380.475 111.271 M34.862 109.795 C 35.197 110.130,48.009 116.401,48.313 116.379 C 48.686 116.351,35.516 109.649,35.033 109.621 C 34.832 109.610,34.755 109.688,34.862 109.795 M366.300 111.624 C 364.155 112.715,362.400 113.702,362.400 113.818 C 362.400 113.934,362.715 113.868,363.100 113.672 C 363.485 113.476,365.375 112.557,367.300 111.631 C 370.482 110.100,371.335 109.564,370.500 109.620 C 370.335 109.632,368.445 110.533,366.300 111.624 M355.690 116.880 C 352.550 118.438,350.056 119.789,350.147 119.881 C 350.239 119.973,352.989 118.697,356.257 117.045 C 359.526 115.393,362.020 114.043,361.800 114.044 C 361.580 114.045,358.831 115.321,355.690 116.880 M30.400 114.965 C 30.400 115.056,31.795 115.807,33.500 116.635 C 35.205 117.462,36.735 118.208,36.900 118.293 C 37.065 118.378,37.200 118.369,37.200 118.274 C 37.200 118.091,30.952 114.800,30.604 114.800 C 30.492 114.800,30.400 114.874,30.400 114.965 M368.071 117.263 C 365.360 118.590,363.219 119.752,363.313 119.846 C 363.494 120.028,373.600 115.224,373.600 114.957 C 373.600 114.614,372.810 114.944,368.071 117.263 M48.800 116.572 C 48.800 116.863,55.240 120.094,55.434 119.900 C 55.551 119.783,52.343 118.059,49.100 116.497 C 48.935 116.418,48.800 116.451,48.800 116.572 M37.633 118.564 C 38.098 119.020,50.915 125.219,51.071 125.062 C 51.172 124.962,48.263 123.422,44.609 121.640 C 38.622 118.721,37.119 118.058,37.633 118.564 M357.303 122.495 C 354.610 123.839,352.469 125.003,352.547 125.080 C 352.714 125.247,362.800 120.417,362.800 120.170 C 362.800 119.809,362.043 120.129,357.303 122.495 M57.600 120.930 C 57.600 121.212,62.493 123.641,62.681 123.453 C 62.774 123.359,61.804 122.784,60.525 122.173 C 59.246 121.562,58.065 120.993,57.900 120.908 C 57.735 120.823,57.600 120.833,57.600 120.930 M345.300 122.033 C 343.925 122.700,342.800 123.336,342.800 123.446 C 342.800 123.557,342.935 123.577,343.100 123.492 C 343.265 123.407,344.435 122.843,345.700 122.239 C 346.965 121.635,348.000 121.064,348.000 120.971 C 348.000 120.722,348.019 120.714,345.300 122.033 M51.657 125.359 C 52.082 125.835,58.102 128.831,58.279 128.654 C 58.369 128.564,57.038 127.809,55.321 126.976 C 53.605 126.143,52.020 125.374,51.800 125.267 C 51.580 125.159,51.515 125.201,51.657 125.359 M66.400 125.380 C 66.400 125.478,67.615 126.133,69.100 126.834 C 70.585 127.535,72.115 128.270,72.500 128.468 C 72.885 128.666,73.200 128.734,73.200 128.619 C 73.200 128.411,67.010 125.200,66.609 125.200 C 66.494 125.200,66.400 125.281,66.400 125.380 M332.800 128.200 C 329.610 129.827,327.118 131.167,327.262 131.179 C 327.623 131.208,339.200 125.569,339.200 125.364 C 339.200 124.993,338.342 125.374,332.800 128.200 M349.331 126.333 C 347.661 127.194,345.558 128.638,347.000 127.933 C 347.220 127.825,348.435 127.243,349.700 126.639 C 350.965 126.035,352.000 125.464,352.000 125.371 C 352.000 125.049,351.398 125.266,349.331 126.333 M341.095 130.367 C 336.839 132.456,334.709 133.670,336.520 132.975 C 338.031 132.395,346.575 128.053,346.200 128.056 C 345.980 128.057,343.683 129.097,341.095 130.367 M58.800 128.972 C 58.800 129.222,70.480 134.853,70.649 134.685 C 70.782 134.552,59.382 128.800,58.985 128.800 C 58.883 128.800,58.800 128.878,58.800 128.972 M73.653 128.987 C 74.044 129.378,86.899 135.635,87.034 135.500 C 87.112 135.422,84.212 133.882,80.590 132.079 C 74.641 129.117,73.094 128.427,73.653 128.987 M322.470 133.247 C 321.079 133.922,320.026 134.559,320.130 134.663 C 320.339 134.872,325.200 132.505,325.200 132.194 C 325.200 131.918,325.253 131.898,322.470 133.247 M329.273 136.068 C 326.124 137.614,323.629 138.962,323.730 139.063 C 323.887 139.221,335.103 133.821,335.567 133.364 C 336.126 132.814,334.326 133.587,329.273 136.068 M72.800 135.743 C 72.800 136.031,79.283 139.250,79.476 139.058 C 79.568 138.966,78.238 138.209,76.521 137.376 C 74.805 136.543,73.265 135.792,73.100 135.707 C 72.935 135.622,72.800 135.638,72.800 135.743 M87.600 135.772 C 87.600 136.091,94.049 139.284,94.263 139.071 C 94.362 138.972,93.038 138.209,91.321 137.376 C 89.605 136.543,88.065 135.792,87.900 135.707 C 87.735 135.622,87.600 135.651,87.600 135.772 M314.531 137.140 C 312.953 137.945,311.513 138.767,311.331 138.966 C 311.149 139.165,311.180 139.241,311.400 139.133 C 311.620 139.026,313.195 138.262,314.900 137.435 C 317.698 136.077,318.550 135.531,317.700 135.638 C 317.535 135.659,316.109 136.335,314.531 137.140 M80.000 139.368 C 80.000 139.577,93.164 146.008,93.533 145.979 C 93.854 145.953,80.730 139.251,80.300 139.221 C 80.135 139.210,80.000 139.276,80.000 139.368 M303.697 142.490 C 300.121 144.271,297.261 145.795,297.343 145.876 C 297.508 146.041,310.800 139.600,310.800 139.355 C 310.800 139.004,309.909 139.397,303.697 142.490 M96.400 140.165 C 96.400 140.256,97.795 141.007,99.500 141.835 C 101.205 142.662,102.780 143.426,103.000 143.533 C 103.220 143.641,103.285 143.599,103.143 143.441 C 102.575 142.805,96.400 139.805,96.400 140.165 M316.871 142.065 C 314.599 143.170,312.820 144.154,312.917 144.251 C 313.080 144.413,321.085 140.648,321.535 140.198 C 322.075 139.659,320.621 140.240,316.871 142.065 M105.200 144.580 C 105.200 144.678,106.415 145.333,107.900 146.034 C 109.385 146.735,110.915 147.470,111.300 147.668 C 111.685 147.866,112.000 147.934,112.000 147.819 C 112.000 147.611,105.810 144.400,105.409 144.400 C 105.294 144.400,105.200 144.481,105.200 144.580 M306.073 147.268 C 302.924 148.814,300.423 150.156,300.516 150.249 C 300.700 150.433,312.400 144.835,312.400 144.564 C 312.400 144.212,311.607 144.551,306.073 147.268 M94.000 146.140 C 94.000 146.445,100.455 149.678,100.658 149.476 C 100.760 149.374,99.438 148.609,97.721 147.776 C 96.005 146.943,94.465 146.192,94.300 146.107 C 94.135 146.022,94.000 146.037,94.000 146.140 M285.600 151.443 C 279.550 154.433,273.280 157.507,271.667 158.274 C 270.054 159.040,268.813 159.746,268.910 159.843 C 269.105 160.039,296.800 146.476,296.800 146.185 C 296.800 145.897,297.188 145.715,285.600 151.443 M119.743 151.845 C 123.011 153.497,125.755 154.779,125.840 154.694 C 126.016 154.517,114.573 148.789,114.107 148.821 C 113.938 148.833,116.474 150.193,119.743 151.845 M101.289 149.822 C 101.727 150.260,118.514 158.419,118.666 158.268 C 118.817 158.116,101.753 149.600,101.297 149.600 C 101.171 149.600,101.167 149.700,101.289 149.822 M294.400 153.014 C 291.650 154.409,289.519 155.562,289.665 155.576 C 290.031 155.609,300.000 150.781,300.000 150.570 C 300.000 150.223,299.287 150.534,294.400 153.014 M128.000 155.726 C 128.000 156.014,134.472 159.261,134.664 159.069 C 134.762 158.971,133.438 158.209,131.721 157.376 C 130.005 156.543,128.465 155.792,128.300 155.707 C 128.135 155.622,128.000 155.631,128.000 155.726 M284.000 158.044 C 281.250 159.381,277.680 161.104,276.067 161.871 C 274.454 162.639,273.215 163.349,273.315 163.448 C 273.414 163.547,275.814 162.478,278.648 161.072 C 281.481 159.666,285.015 157.940,286.500 157.237 C 287.985 156.534,289.200 155.878,289.200 155.780 C 289.200 155.509,289.342 155.447,284.000 158.044 M122.400 160.171 C 122.400 160.264,123.435 160.835,124.700 161.439 C 125.965 162.043,127.135 162.607,127.300 162.692 C 127.465 162.777,127.600 162.767,127.600 162.670 C 127.600 162.496,122.893 160.000,122.566 160.000 C 122.474 160.000,122.400 160.077,122.400 160.171 M136.800 160.165 C 136.800 160.256,138.195 161.007,139.900 161.835 C 141.605 162.662,143.135 163.408,143.300 163.493 C 143.465 163.578,143.600 163.563,143.600 163.460 C 143.600 163.260,137.401 160.000,137.023 160.000 C 136.900 160.000,136.800 160.074,136.800 160.165 M265.095 161.545 C 263.387 162.388,261.857 163.223,261.695 163.403 C 261.533 163.582,261.580 163.641,261.800 163.533 C 262.020 163.426,263.595 162.662,265.300 161.835 C 267.005 161.007,268.400 160.256,268.400 160.165 C 268.400 159.914,268.411 159.909,265.095 161.545 M129.633 163.760 C 130.111 164.220,141.306 169.627,141.460 169.473 C 141.560 169.373,139.005 168.011,135.783 166.446 C 130.481 163.870,129.138 163.284,129.633 163.760 M144.063 163.797 C 144.497 164.230,166.113 174.820,166.261 174.672 C 166.416 174.517,144.562 163.600,144.098 163.600 C 143.971 163.600,143.955 163.689,144.063 163.797 M250.493 168.690 C 244.935 171.457,240.455 173.788,240.538 173.871 C 240.621 173.954,243.549 172.603,247.045 170.869 C 250.540 169.134,255.155 166.869,257.300 165.834 C 260.807 164.143,261.789 163.542,260.900 163.630 C 260.735 163.646,256.052 165.923,250.493 168.690 M266.479 166.476 C 263.332 168.024,260.833 169.366,260.925 169.458 C 261.111 169.644,272.800 164.047,272.800 163.772 C 272.800 163.414,272.049 163.736,266.479 166.476 M255.678 171.676 C 253.411 172.784,251.630 173.764,251.720 173.853 C 251.900 174.033,260.400 170.028,260.400 169.764 C 260.400 169.428,259.701 169.711,255.678 171.676 M143.600 170.569 C 143.600 170.662,145.715 171.771,148.300 173.035 C 150.885 174.298,156.152 176.886,160.004 178.786 C 167.256 182.363,168.400 182.885,168.400 182.616 C 168.400 182.529,166.105 181.338,163.300 179.970 C 160.495 178.602,154.970 175.889,151.021 173.941 C 143.649 170.305,143.600 170.282,143.600 170.569 M166.800 174.979 C 166.800 175.235,174.910 179.224,175.081 179.052 C 175.206 178.927,167.309 174.800,166.943 174.800 C 166.864 174.800,166.800 174.881,166.800 174.979 M234.852 176.401 C 233.231 177.260,231.791 178.090,231.652 178.245 C 231.513 178.401,231.580 178.441,231.800 178.333 C 232.020 178.226,233.595 177.462,235.300 176.635 C 238.142 175.256,238.895 174.768,238.100 174.820 C 237.935 174.830,236.473 175.542,234.852 176.401 M246.182 176.333 C 244.632 177.140,241.167 178.845,238.482 180.123 C 235.797 181.400,233.600 182.536,233.600 182.646 C 233.600 182.757,233.735 182.776,233.900 182.689 C 234.065 182.602,235.550 181.891,237.200 181.111 C 244.771 177.529,249.600 175.140,249.600 174.977 C 249.600 174.632,248.969 174.883,246.182 176.333 M175.600 179.365 C 175.600 179.456,176.995 180.207,178.700 181.035 C 180.405 181.862,181.935 182.608,182.100 182.693 C 182.265 182.778,182.400 182.763,182.400 182.660 C 182.400 182.460,176.201 179.200,175.823 179.200 C 175.700 179.200,175.600 179.274,175.600 179.365 M221.665 182.882 C 220.270 183.531,219.214 184.147,219.317 184.250 C 219.460 184.394,223.388 182.726,224.367 182.106 C 225.383 181.462,223.639 181.963,221.665 182.882 M170.400 183.759 C 170.400 183.960,183.585 190.407,183.938 190.379 C 184.255 190.353,171.126 183.651,170.700 183.621 C 170.535 183.610,170.400 183.672,170.400 183.759 M184.433 183.764 C 184.767 184.092,197.607 190.399,197.900 190.379 C 198.283 190.352,185.125 183.649,184.633 183.621 C 184.432 183.610,184.342 183.674,184.433 183.764 M226.075 186.071 C 223.366 187.398,221.232 188.565,221.332 188.666 C 221.433 188.766,223.829 187.677,226.658 186.245 C 229.486 184.813,231.620 183.646,231.400 183.651 C 231.180 183.656,228.784 184.745,226.075 186.071 M213.660 186.806 C 212.043 187.653,210.603 188.477,210.460 188.637 C 210.317 188.797,210.380 188.841,210.600 188.733 C 210.820 188.626,212.395 187.862,214.100 187.035 C 216.910 185.671,217.735 185.141,216.900 185.233 C 216.735 185.251,215.277 185.959,213.660 186.806 M215.275 191.271 C 212.566 192.598,210.425 193.758,210.517 193.850 C 210.696 194.029,220.800 189.221,220.800 188.957 C 220.800 188.621,220.031 188.943,215.275 191.271 M205.075 191.004 C 202.367 192.351,202.343 192.354,201.075 191.652 C 200.374 191.263,199.485 190.828,199.100 190.685 C 197.776 190.193,198.403 190.718,200.366 191.744 L 202.332 192.772 205.466 191.211 C 207.190 190.353,208.420 189.650,208.200 189.650 C 207.980 189.649,206.574 190.259,205.075 191.004 M184.400 190.572 C 184.400 190.891,190.849 194.084,191.063 193.871 C 191.162 193.772,189.838 193.009,188.121 192.176 C 186.405 191.343,184.865 190.592,184.700 190.507 C 184.535 190.422,184.400 190.451,184.400 190.572 M193.200 194.971 C 193.200 195.064,194.235 195.635,195.500 196.239 C 196.765 196.843,197.935 197.407,198.100 197.492 C 198.265 197.577,198.400 197.549,198.400 197.429 C 198.400 197.214,193.820 194.800,193.411 194.800 C 193.295 194.800,193.200 194.877,193.200 194.971 M205.800 195.911 L 203.800 197.003 203.791 208.801 L 203.782 220.600 203.897 208.944 L 204.012 197.288 206.206 196.215 C 208.248 195.215,208.826 194.787,208.100 194.809 C 207.935 194.814,206.900 195.310,205.800 195.911 M198.698 229.400 C 198.535 241.060,198.219 264.910,197.994 282.400 C 197.770 299.890,197.412 327.070,197.198 342.800 C 196.529 392.060,196.294 419.008,196.537 418.781 C 196.666 418.661,196.970 401.741,197.212 381.181 C 197.794 331.874,198.232 295.564,198.797 249.800 C 199.052 229.120,199.201 211.300,199.127 210.200 C 199.053 209.100,198.860 217.740,198.698 229.400 M203.299 336.667 C 203.245 388.624,203.096 431.464,202.970 431.867 C 202.764 432.523,202.785 432.530,203.171 431.934 C 203.476 431.462,203.572 403.777,203.500 336.734 L 203.398 242.200 203.299 336.667 " stroke="none" fill="#bc77fc" fill-rule="evenodd"></path><path id="path4" d="M229.006 13.610 C 229.272 14.040,230.800 14.380,230.800 14.009 C 230.800 13.835,230.355 13.608,229.812 13.504 C 229.269 13.401,228.906 13.448,229.006 13.610 M238.000 18.039 C 238.000 18.186,238.434 18.390,238.963 18.491 C 239.574 18.608,239.864 18.510,239.754 18.223 C 239.570 17.746,238.000 17.581,238.000 18.039 M391.701 104.600 C 391.705 105.480,391.787 105.793,391.883 105.295 C 391.979 104.798,391.975 104.078,391.875 103.695 C 391.775 103.313,391.696 103.720,391.701 104.600 M379.200 105.000 C 377.770 105.749,376.780 106.361,377.000 106.361 C 377.220 106.361,378.570 105.749,380.000 105.000 C 381.430 104.251,382.420 103.639,382.200 103.639 C 381.980 103.639,380.630 104.251,379.200 105.000 M383.200 110.400 C 382.430 110.822,381.980 111.166,382.200 111.166 C 382.420 111.166,383.230 110.822,384.000 110.400 C 384.770 109.978,385.220 109.634,385.000 109.634 C 384.780 109.634,383.970 109.978,383.200 110.400 M44.433 114.151 C 44.842 114.521,48.000 115.995,48.000 115.816 C 48.000 115.589,44.981 114.000,44.549 114.000 C 44.394 114.000,44.342 114.068,44.433 114.151 M36.400 118.188 C 36.400 118.298,37.480 118.934,38.800 119.600 C 40.120 120.266,41.200 120.722,41.200 120.612 C 41.200 120.502,40.120 119.866,38.800 119.200 C 37.480 118.534,36.400 118.078,36.400 118.188 M53.600 118.596 C 53.600 118.870,56.049 120.084,56.232 119.901 C 56.319 119.814,55.762 119.444,54.995 119.078 C 54.228 118.712,53.600 118.495,53.600 118.596 M350.400 119.200 C 349.630 119.622,349.144 119.974,349.320 119.983 C 349.744 120.005,352.000 118.832,352.000 118.590 C 352.000 118.328,351.977 118.337,350.400 119.200 M329.100 129.627 C 328.275 130.063,327.600 130.508,327.600 130.618 C 327.600 130.796,330.759 129.319,331.167 128.951 C 331.627 128.534,330.425 128.928,329.100 129.627 M334.300 134.026 C 333.035 134.679,332.000 135.303,332.000 135.412 C 332.000 135.591,336.760 133.325,337.167 132.953 C 337.690 132.473,336.298 132.994,334.300 134.026 M83.233 133.351 C 83.642 133.721,86.800 135.195,86.800 135.016 C 86.800 134.789,83.781 133.200,83.349 133.200 C 83.194 133.200,83.142 133.268,83.233 133.351 M123.633 153.353 C 124.041 153.726,128.800 155.991,128.800 155.812 C 128.800 155.587,124.179 153.200,123.745 153.200 C 123.592 153.200,123.542 153.269,123.633 153.353 M108.800 153.797 C 108.800 154.068,112.049 155.684,112.230 155.503 C 112.314 155.419,111.576 154.959,110.591 154.481 C 109.606 154.002,108.800 153.694,108.800 153.797 M281.200 159.800 C 280.210 160.330,279.542 160.772,279.716 160.782 C 280.141 160.806,283.200 159.234,283.200 158.992 C 283.200 158.727,283.217 158.720,281.200 159.800 M126.800 162.598 C 126.800 162.865,133.249 166.085,133.426 165.907 C 133.505 165.828,132.047 165.008,130.185 164.085 C 128.323 163.161,126.800 162.493,126.800 162.598 M249.500 168.827 C 248.675 169.263,248.000 169.708,248.000 169.818 C 248.000 169.996,251.159 168.519,251.567 168.151 C 252.027 167.734,250.825 168.128,249.500 168.827 M194.033 188.153 C 194.441 188.526,199.200 190.791,199.200 190.612 C 199.200 190.387,194.579 188.000,194.145 188.000 C 193.992 188.000,193.942 188.069,194.033 188.153 M208.900 188.826 C 207.965 189.265,207.200 189.719,207.200 189.835 C 207.200 189.952,207.335 189.977,207.500 189.891 C 207.665 189.805,208.475 189.426,209.300 189.048 C 210.125 188.671,210.800 188.281,210.800 188.181 C 210.800 187.933,210.816 187.928,208.900 188.826 M198.091 197.716 C 198.732 198.235,198.765 199.398,198.536 213.838 C 198.400 222.397,198.379 229.310,198.489 229.200 C 198.599 229.090,198.804 222.031,198.945 213.514 L 199.201 198.028 198.300 197.592 C 197.494 197.202,197.473 197.215,198.091 197.716 M203.600 326.280 C 203.490 384.404,203.535 431.825,203.701 431.659 C 203.866 431.494,203.956 383.938,203.901 325.979 L 203.800 220.600 203.600 326.280 M197.901 265.600 C 197.737 270.110,197.630 277.940,197.665 283.000 C 197.721 291.179,197.765 290.468,198.065 276.600 C 198.250 268.020,198.356 260.190,198.301 259.200 C 198.245 258.210,198.065 261.090,197.901 265.600 M197.101 327.400 C 196.937 331.580,196.831 339.860,196.865 345.800 C 196.926 356.280,196.938 356.103,197.266 339.800 C 197.638 321.263,197.563 315.643,197.101 327.400 M196.565 386.800 C 196.565 390.650,196.625 392.225,196.698 390.300 C 196.771 388.375,196.771 385.225,196.698 383.300 C 196.625 381.375,196.565 382.950,196.565 386.800 M196.184 414.200 C 196.184 424.320,196.236 428.403,196.300 423.273 C 196.363 418.142,196.363 409.862,196.300 404.873 C 196.236 399.883,196.184 404.080,196.184 414.200 " stroke="none" fill="#b46dfc" fill-rule="evenodd"></path></g></svg>