<?xml version="1.0" encoding="UTF-8" standalone="no"?>
<!DOCTYPE svg PUBLIC "-//W3C//DTD SVG 20010904//EN" "http://www.w3.org/TR/2001/REC-SVG-20010904/DTD/svg10.dtd">
<svg version="1.0" xmlns="http://www.w3.org/2000/svg" width="1286.000000pt" height="1286.000000pt" viewBox="0 0 1286.000000 1286.000000" preserveAspectRatio="xMidYMid meet">

<g transform="translate(0.000000,1286.000000) scale(0.100000,-0.100000)" fill="#b03737" stroke="none">
<path d="M0 6430 l0 -6430 6425 0 6425 0 0 6430 0 6430 -6425 0 -6425 0 0 -6430z m12550 0 l0 -6130 -6122 2 -6123 3 -3 6128 -2 6127 6125 0 6125 0 0 -6130z"/>
<path d="M10927 12079 c-301 -34 -574 -246 -691 -535 -68 -167 -75 -408 -18 -584 119 -362 443 -594 827 -592 401 2 730 264 831 662 28 110 25 296 -5 410 -92 346 -378 595 -733 640 -91 11 -111 11 -211 -1z m311 -109 c150 -42 294 -135 389 -249 71 -86 107 -152 145 -264 29 -84 32 -103 32 -222 1 -150 -13 -216 -73 -340 -75 -157 -189 -275 -341 -354 -117 -61 -213 -85 -350 -85 -141 0 -219 18 -350 82 -82 40 -108 59 -190 142 -107 107 -149 172 -191 294 -73 212 -53 435 56 633 51 91 197 237 288 288 78 43 180 80 258 94 80 15 242 5 327 -19z"/>
<path d="M10595 11797 c-156 -118 -258 -302 -280 -510 l-7 -67 255 0 255 0 12 52 c9 38 25 65 57 99 l43 47 -123 213 c-69 117 -128 214 -133 216 -5 2 -40 -21 -79 -50z"/>
<path d="M11269 11632 l-126 -217 33 -27 c37 -32 74 -102 74 -141 l0 -27 255 0 255 0 0 48 c-1 145 -77 324 -190 445 -57 61 -152 137 -171 137 -2 0 -61 -98 -130 -218z"/>
<path d="M10959 11347 c-39 -26 -69 -79 -69 -122 0 -43 30 -96 69 -122 66 -45 171 -20 206 47 22 42 19 116 -5 155 -40 64 -137 85 -201 42z"/>
<path d="M10921 11026 c-19 -24 -241 -415 -241 -425 0 -14 44 -36 137 -67 157 -52 361 -41 512 27 35 16 67 31 69 34 2 2 -53 103 -122 224 l-127 220 -41 -15 c-50 -17 -91 -17 -140 0 -28 10 -40 11 -47 2z"/>
<path d="M3915 11827 c-149 -49 -240 -149 -270 -296 -34 -161 31 -313 163 -380 109 -55 269 -44 359 25 29 22 33 23 33 7 0 -35 -59 -143 -102 -186 -76 -75 -188 -117 -314 -117 l-54 0 0 -81 0 -82 108 5 c348 17 555 235 578 607 14 229 -70 408 -224 479 -46 21 -75 27 -147 29 -55 2 -105 -2 -130 -10z m169 -151 c41 -17 90 -75 105 -125 22 -74 25 -155 7 -189 -47 -90 -182 -125 -273 -70 -41 25 -83 108 -83 166 0 165 118 271 244 218z"/>
<path d="M1042 11568 c-18 -139 -32 -262 -32 -273 0 -19 7 -20 138 -20 161 0 211 -14 266 -75 38 -43 51 -88 43 -156 -6 -60 -47 -111 -115 -142 -49 -22 -63 -24 -146 -20 -58 4 -111 13 -146 27 -30 11 -58 21 -61 21 -3 0 -14 -34 -24 -76 -22 -86 -23 -84 60 -109 340 -105 645 60 645 349 0 209 -133 329 -382 343 -54 3 -98 9 -98 12 0 7 17 117 25 169 l6 32 209 0 210 0 0 85 0 85 -283 0 -283 0 -32 -252z"/>
<path d="M2222 11778 c-16 -24 -115 -175 -221 -335 l-191 -293 0 -70 0 -70 245 0 245 0 0 -140 0 -140 100 0 100 0 0 140 0 140 70 0 71 0 -3 78 -3 77 -67 3 -68 3 0 324 0 325 -125 0 -124 0 -29 -42z m80 -370 l-4 -238 -144 0 c-114 0 -144 3 -138 13 5 6 52 79 107 162 54 82 117 185 139 228 21 44 40 77 41 76 1 -2 1 -111 -1 -241z"/>
<path d="M2959 11755 l-127 -64 15 -63 c7 -35 16 -69 18 -76 3 -9 35 3 105 38 l100 50 0 -455 0 -455 100 0 100 0 0 545 0 545 -92 -1 -93 0 -126 -64z"/>
<path d="M3795 8690 c-215 -13 -447 -37 -623 -65 -84 -14 -155 -25 -157 -25 -3 0 -4 -1088 -3 -2417 l3 -2418 149 -17 c337 -37 917 -50 1221 -27 829 61 1320 310 1573 798 153 294 192 650 106 973 -30 115 -115 290 -185 383 -162 216 -403 384 -683 477 -53 17 -96 35 -96 38 0 4 35 22 78 40 501 210 792 665 743 1161 -34 341 -162 570 -431 773 -224 169 -495 266 -866 312 -155 18 -615 26 -829 14z m750 -504 c134 -23 230 -52 330 -100 245 -116 379 -310 405 -584 43 -461 -255 -803 -778 -893 -99 -16 -163 -19 -483 -19 l-369 0 0 789 0 789 68 11 c199 34 656 37 827 7z m-5 -2109 c228 -46 378 -102 514 -191 185 -120 300 -278 357 -491 32 -118 32 -353 1 -480 -45 -181 -143 -335 -283 -447 -258 -205 -643 -289 -1197 -259 -125 6 -239 14 -254 18 l-28 5 0 935 0 935 408 -5 c309 -4 425 -9 482 -20z"/>
<path d="M6940 6215 l0 -2465 315 0 315 0 0 663 0 662 166 183 165 183 212 -294 c117 -162 390 -542 607 -845 l395 -551 393 0 393 -1 -104 137 c-459 611 -1440 1929 -1441 1938 -1 9 925 1003 1278 1372 l79 83 -389 -1 -389 0 -674 -720 c-370 -395 -677 -719 -682 -719 -5 0 -9 604 -9 1420 l0 1420 -315 0 -315 0 0 -2465z"/>
<path d="M5350 2640 l0 -600 75 0 75 0 0 153 1 152 37 43 37 43 140 -195 140 -196 93 0 92 0 -180 241 -181 240 155 163 c86 90 156 166 156 170 0 3 -39 6 -87 5 l-88 0 -110 -130 c-60 -72 -131 -158 -157 -191 l-48 -60 0 381 0 381 -75 0 -75 0 0 -600z"/>
<path d="M7000 2640 l0 -600 75 0 75 0 0 600 0 600 -75 0 -75 0 0 -600z"/>
<path d="M3093 3179 c-35 -4 -67 -11 -73 -14 -6 -4 -10 -202 -10 -564 l0 -558 31 -7 c17 -3 102 -6 189 -6 233 0 347 33 428 125 69 79 93 193 63 298 -19 65 -87 139 -158 173 l-57 26 30 16 c102 52 154 135 154 241 0 81 -22 133 -78 183 -54 49 -90 67 -170 84 -72 15 -247 17 -349 3z m356 -137 c67 -34 91 -74 91 -152 0 -63 -21 -104 -72 -143 -47 -35 -98 -47 -210 -47 l-98 0 0 184 0 185 43 4 c92 10 190 -2 246 -31z m12 -495 c72 -35 108 -85 116 -159 15 -148 -80 -234 -272 -245 -51 -3 -104 -3 -119 1 l-26 6 0 216 0 216 123 -4 c109 -3 128 -6 178 -31z"/>
<path d="M7413 3156 c-22 -19 -28 -32 -28 -66 0 -53 38 -90 91 -90 44 0 94 45 94 85 0 33 -24 81 -45 89 -36 13 -84 6 -112 -18z"/>
<path d="M4184 2870 c-185 -39 -304 -210 -304 -435 0 -94 17 -163 56 -235 35 -65 80 -105 164 -144 62 -30 70 -31 195 -31 98 0 146 5 193 19 l64 19 -7 46 c-4 25 -10 50 -14 54 -5 5 -35 1 -67 -9 -35 -10 -95 -17 -150 -17 -80 -1 -98 3 -148 27 -37 18 -68 43 -87 69 -30 41 -59 122 -59 164 l0 23 291 0 292 0 -5 100 c-4 90 -9 107 -42 174 -42 85 -94 137 -165 161 -57 20 -153 27 -207 15z m135 -110 c67 -19 123 -94 136 -183 l7 -47 -221 0 -221 0 6 28 c37 157 158 241 293 202z"/>
<path d="M5100 2871 c-71 -22 -123 -67 -157 -135 l-20 -39 -7 81 -7 82 -66 0 -66 0 7 -46 c3 -26 6 -210 6 -410 l0 -364 75 0 75 0 0 253 c1 185 4 262 14 290 35 97 104 151 194 151 l52 0 0 67 c0 52 -4 68 -16 73 -20 8 -52 6 -84 -3z"/>
<path d="M6385 2867 c-181 -48 -295 -214 -295 -432 0 -207 104 -353 285 -401 91 -25 270 -13 366 24 26 10 26 12 16 61 -5 28 -15 51 -21 51 -6 0 -33 -7 -61 -16 -65 -20 -208 -22 -260 -5 -92 32 -144 90 -170 188 -8 31 -15 63 -15 70 0 10 60 13 289 13 l289 0 6 34 c8 44 -9 151 -35 220 -26 71 -87 139 -152 170 -64 32 -170 41 -242 23z m193 -129 c46 -31 82 -97 90 -164 l5 -44 -217 0 -216 0 1 23 c2 66 67 164 130 196 61 31 150 26 207 -11z"/>
<path d="M9057 2870 c-58 -15 -89 -34 -139 -88 l-47 -50 -6 64 -7 64 -66 0 -65 0 7 -61 c3 -34 6 -219 6 -410 l0 -349 69 0 70 0 3 273 c3 270 3 273 29 322 14 28 44 64 68 82 37 29 51 33 100 33 70 0 114 -26 145 -85 20 -37 21 -59 24 -332 l3 -293 74 0 75 0 0 275 c0 300 3 321 58 378 40 42 75 57 135 57 95 0 148 -56 167 -176 6 -33 10 -166 10 -296 l0 -238 71 0 70 0 -3 308 -3 307 -29 63 c-36 78 -91 127 -165 148 -120 36 -260 -21 -331 -133 -8 -13 -13 -15 -17 -5 -15 38 -74 99 -114 120 -52 26 -135 36 -192 22z"/>
<path d="M7400 2450 l0 -410 75 0 75 0 0 410 0 410 -75 0 -75 0 0 -410z"/>
<path d="M7800 2567 c0 -321 4 -352 59 -439 18 -28 48 -57 78 -75 44 -25 57 -28 143 -28 84 0 101 3 146 27 28 15 70 48 93 74 l41 47 0 -67 0 -66 68 0 67 0 -3 410 -2 410 -75 0 -74 0 -3 -287 -3 -288 -32 -47 c-76 -108 -229 -130 -301 -42 -49 59 -53 88 -59 387 l-6 277 -68 0 -69 0 0 -293z"/>
</g>
</svg>